<?xml version="1.0" encoding="utf-8"?>
<!-- Generator: Adobe Illustrator 16.0.0, SVG Export Plug-In . SVG Version: 6.00 Build 0)  -->
<!DOCTYPE svg PUBLIC "-//W3C//DTD SVG 1.1//EN" "http://www.w3.org/Graphics/SVG/1.1/DTD/svg11.dtd">
<svg version="1.1" id="Layer_1" xmlns:sketch="http://www.bohemiancoding.com/sketch/ns"
	 xmlns="http://www.w3.org/2000/svg" xmlns:xlink="http://www.w3.org/1999/xlink" x="0px" y="0px" width="2442px" height="1885px"
	 viewBox="0 0 2442 1885" enable-background="new 0 0 2442 1885" xml:space="preserve">
<title>Artboard 2</title>
<desc>Created with Sketch.</desc>
<g id="Page-1" sketch:type="MSPage">
	<g id="Artboard-2" sketch:type="MSArtboardGroup">
		<g id="LOGO---Full" transform="translate(316.000000, 251.000000)" sketch:type="MSLayerGroup">
			<path id="INDUSTRIES" sketch:type="MSShapeGroup" fill="#363636" d="M-230.962,1436.358h-42.088v184.695h42.088V1436.358z
				 M-45.38,1506.431h0.448l73.431,114.623h42.088v-184.695H28.499v114.623h-0.446l-73.43-114.623h-42.088v184.695h42.088v-114.623
				H-45.38z M214.083,1436.358v184.695h53.506c50.819,0,93.132-38.506,93.132-92.459c0-53.73-42.537-92.238-93.132-92.238h-53.506
				V1436.358z M256.171,1583.444v-109.476h6.491c31.342,0,52.612,23.955,52.612,54.851c-0.224,30.892-21.494,54.625-52.612,54.625
				H256.171z M637.867,1436.358h-42.089v106.789c0,30.893-9.404,39.85-29.998,39.85c-20.597,0-30-8.957-30-39.85v-106.789h-42.088
				v119.101c0,45.669,25.074,68.953,72.088,68.953c47.011,0,72.087-23.284,72.087-68.953V1436.358z M842.703,1433.001
				c-29.775,0-60.222,21.94-60.222,56.416c0,19.253,12.984,36.492,35.147,47.461c21.941,10.969,41.642,17.015,41.642,30.446
				c0,17.239-17.461,18.133-26.641,18.133c-20.596,0-45.222-20.82-45.222-20.82l-21.045,35.374c0,0,26.194,24.401,69.401,24.401
				c36.046,0,69.625-15.447,69.625-59.551c0-24.178-22.61-41.641-43.208-50.37c-21.043-8.958-38.506-16.344-38.506-26.641
				c0-10.077,7.614-16.567,21.941-16.567c19.028,0,37.387,12.761,37.387,12.761l17.014-33.582
				C900.014,1450.462,876.284,1433.001,842.703,1433.001L842.703,1433.001z M1019.331,1473.297h43.88v147.757h42.089v-147.757
				h43.877v-36.94h-129.846V1473.297z M1281.031,1436.358v184.695h42.089v-72.982l56.417,72.982h53.506l-63.58-76.34
				c22.61-7.163,37.834-25.746,37.834-53.507c0-36.267-25.969-54.849-60.222-54.849H1281.031L1281.031,1436.358z M1323.12,1518.296
				v-48.355h4.926c15.895,0,34.925,1.12,34.925,24.179c0,23.058-19.027,24.178-34.925,24.178L1323.12,1518.296L1323.12,1518.296z
				 M1600.044,1436.358h-42.088v184.695h42.088V1436.358z M1849.207,1436.358h-105.668v184.695h105.668v-36.938h-63.579v-37.165
				h60.893v-36.938h-60.893v-36.718h63.579V1436.358z M2058.073,1433.001c-29.775,0-60.221,21.94-60.221,56.416
				c0,19.253,12.983,36.492,35.148,47.461c21.942,10.969,41.641,17.015,41.641,30.446c0,17.239-17.463,18.133-26.641,18.133
				c-20.598,0-45.223-20.82-45.223-20.82l-21.044,35.374c0,0,26.192,24.401,69.399,24.401c36.045,0,69.624-15.447,69.624-59.551
				c0-24.178-22.611-41.641-43.205-50.37c-21.045-8.958-38.51-16.344-38.51-26.641c0-10.077,7.614-16.567,21.942-16.567
				c19.028,0,37.388,12.761,37.388,12.761l17.013-33.582C2115.386,1450.462,2091.655,1433.001,2058.073,1433.001L2058.073,1433.001z
				"/>
			<path id="THE-THINGS" sketch:type="MSShapeGroup" fill="#363636" d="M-310.423,1076.934h74.277v250.118h71.246v-250.118h74.275
				v-62.53h-219.799V1076.934z M18.598,1201.613h100.805v125.438h71.246v-312.648h-71.246v124.681H18.598v-124.681h-71.246v312.648
				h71.246V1201.613L18.598,1201.613z M427.202,1014.403H248.33v312.648h178.872v-62.53H319.574v-62.908h103.082v-62.529H319.574
				v-62.15h107.628V1014.403z M558.102,1076.934h74.278v250.118h71.246v-250.118h74.277v-62.53H558.102V1076.934z M887.123,1201.613
				h100.806v125.438h71.246v-312.648h-71.246v124.681H887.123v-124.681h-71.246v312.648h71.246V1201.613z M1188.101,1014.403
				h-71.246v312.648h71.246V1014.403z M1317.028,1133.021h0.757l124.303,194.031h71.246v-312.648h-71.246v194.031h-0.757
				l-124.303-194.031h-71.246v312.648h71.246V1133.021z M1853.725,1151.969h-144.388v54.95h72.004
				c0,38.275-33.728,60.255-67.835,60.255c-43.96,0-79.583-43.199-79.583-96.255c0-54.194,35.623-97.774,79.583-97.774
				c27.667,0,51.54,10.989,69.73,40.169l46.613-51.16c-27.286-32.971-65.562-53.435-120.513-53.435
				c-87.92,0-152.344,72.383-152.344,162.2c0,89.434,68.214,161.816,152.344,161.816c61.394,0,127.334-33.728,144.388-112.932
				V1151.969L1853.725,1151.969z M2012.59,1008.719c-50.402,0-101.944,37.14-101.944,95.499c0,32.592,21.982,61.774,59.498,80.342
				c37.139,18.572,70.49,28.802,70.49,51.541c0,29.181-29.56,30.697-45.098,30.697c-34.865,0-76.551-35.247-76.551-35.247
				l-35.623,59.878c0,0,44.339,41.307,117.479,41.307c61.013,0,117.857-26.148,117.857-100.805
				c0-40.929-38.274-70.488-73.139-85.268c-35.623-15.159-65.183-27.665-65.183-45.098c0-17.053,12.886-28.043,37.137-28.043
				c32.212,0,63.289,21.604,63.289,21.604l28.801-56.846C2109.604,1038.278,2069.435,1008.719,2012.59,1008.719L2012.59,1008.719z"
				/>
			<g id="LOGO---Icon" sketch:type="MSShapeGroup">
				<path id="Rectangle-1" fill="#0071BD" d="M-267.602,385.703h124.075c23.834,0,43.156,19.322,43.156,43.156V833.45
					c0,23.834-19.322,43.156-43.156,43.156h-124.075c-23.834,0-43.156-19.322-43.156-43.156V428.859
					C-310.758,405.025-291.436,385.703-267.602,385.703z"/>
				<path id="Rectangle-1_1_" fill="#0071BD" d="M-14.058,148.343h124.075c23.834,0,43.156,19.322,43.156,43.156V833.45
					c0,23.834-19.322,43.156-43.156,43.156H-14.058c-23.834,0-43.156-19.322-43.156-43.156V191.499
					C-57.214,167.665-37.893,148.343-14.058,148.343z"/>
				<path id="Rectangle-1_2_" fill="#0071BD" d="M239.485-51.255h215.782c23.834,0,43.156,19.322,43.156,43.156V833.45
					c0,23.834-19.322,43.156-43.156,43.156H239.485c-23.834,0-43.156-19.322-43.156-43.156V-8.099
					C196.329-31.933,215.651-51.255,239.485-51.255z"/>
				<path id="Rectangle-1_3_" fill="#0071BD" d="M928.638-241.412h397.848c23.836,0,43.158,19.321,43.158,43.156V833.45
					c0,23.834-19.322,43.156-43.158,43.156H928.638c-23.834,0-43.156-19.322-43.156-43.156V-198.256
					C885.482-222.091,904.804-241.412,928.638-241.412z"/>
				<path id="Rectangle-1_4_" fill="#0071BD" d="M583.388,44.498H799.17c23.834,0,43.156,19.322,43.156,43.156V833.45
					c0,23.834-19.322,43.156-43.156,43.156H583.388c-23.834,0-43.156-19.322-43.156-43.156V87.654
					C540.231,63.82,559.553,44.498,583.388,44.498z"/>
				<path id="Rectangle-1_5_" fill="#0071BD" d="M1458.653,44.498h215.781c23.834,0,43.156,19.322,43.156,43.156V833.45
					c0,23.834-19.322,43.156-43.156,43.156h-215.781c-23.834,0-43.156-19.322-43.156-43.156V87.654
					C1415.497,63.82,1434.819,44.498,1458.653,44.498z"/>
				<path id="Rectangle-1_6_" fill="#0071BD" d="M1809.3,385.703h257.589c23.834,0,43.156,19.322,43.156,43.156V833.45
					c0,23.834-19.322,43.156-43.156,43.156H1809.3c-23.836,0-43.157-19.322-43.157-43.156V428.859
					C1766.143,405.025,1785.464,385.703,1809.3,385.703z"/>
			</g>
		</g>
	</g>
</g>
</svg>
